<?xml version="1.0"?>
<svg xmlns="http://www.w3.org/2000/svg" xmlns:xlink="http://www.w3.org/1999/xlink" xmlns:svgjs="http://svgjs.com/svgjs" version="1.1" width="512" height="512" x="0" y="0" viewBox="0 0 511.681 511.681" style="enable-background:new 0 0 512 512" xml:space="preserve" class=""><g><g xmlns="http://www.w3.org/2000/svg"><g><path d="m168.79 301.681 56.008 210-185.178-210z" fill="#54efe8" data-original="#000000" style="" class=""/><path d="m169.86 271.681h-130.24l85.61-85.61c2.82-2.81 6.63-4.39 10.61-4.39h85.45z" fill="#54efe8" data-original="#000000" style="" class=""/></g><g><path d="m307.27 271.681h-102.86l51.43-90z" fill="#54efe8" data-original="#000000" style="" class=""/><path d="m311.84 301.681-56 210-56-210z" fill="#54efe8" data-original="#000000" style="" class=""/></g><g><path d="m341.82 271.681-51.43-90h85.45c3.98 0 7.79 1.58 10.61 4.39l85.61 85.61z" fill="#54efe8" data-original="#000000" style="" class=""/><path d="m342.89 301.681h129.17l-185.178 210z" fill="#54efe8" data-original="#000000" style="" class=""/></g><g><path d="m255.84 85.532c-8.284 0-15-6.716-15-15v-55.532c0-8.284 6.716-15 15-15s15 6.716 15 15v55.532c0 8.284-6.715 15-15 15z" fill="#54efe8" data-original="#000000" style="" class=""/></g><g><path d="m106.733 116.504-27.766-48.092c-4.143-7.174-1.685-16.348 5.49-20.49 7.174-4.142 16.349-1.685 20.49 5.49l27.766 48.092c4.143 7.174 1.685 16.348-5.49 20.49-7.144 4.125-16.33 1.717-20.49-5.49z" fill="#54efe8" data-original="#000000" style="" class=""/></g><g><path d="m384.458 121.995c-7.175-4.142-9.633-13.316-5.49-20.49l27.766-48.092c4.143-7.175 13.315-9.633 20.49-5.49 7.175 4.142 9.633 13.316 5.49 20.49l-27.766 48.092c-4.155 7.196-13.338 9.62-20.49 5.49z" fill="#54efe8" data-original="#000000" style="" class=""/></g></g></g></svg>
