<?xml version="1.0"?>
<svg xmlns="http://www.w3.org/2000/svg" xmlns:xlink="http://www.w3.org/1999/xlink" xmlns:svgjs="http://svgjs.com/svgjs" version="1.1" width="512" height="512" x="0" y="0" viewBox="0 0 512 512" style="enable-background:new 0 0 512 512" xml:space="preserve" class=""><g><g xmlns="http://www.w3.org/2000/svg"><path d="m117 256.054c0-66.417 46.827-122.093 109.198-135.773-48.789 6.212-99.806 27.364-149.238 62.119-44.558 31.33-72.073 62.386-73.222 63.693-4.983 5.665-4.983 14.149 0 19.814 1.149 1.307 28.664 32.363 73.223 63.692 49.029 34.473 99.617 55.563 148.044 61.967-61.775-14.123-108.005-69.519-108.005-135.512z" fill="#54efe8" data-original="#000000" style="" class=""/><path d="m147 256.054c0 60.103 48.897 109 109 109s109-48.897 109-109-48.897-109-109-109-109 48.897-109 109zm129-45.054h40c8.284 0 15 6.716 15 15v40c0 8.284-6.716 15-15 15s-15-6.716-15-15v-3.787l-34.394 34.394c-5.858 5.857-15.354 5.858-21.213 0l-19.419-19.418-19.137 19.137c-5.857 5.857-15.355 5.859-21.213 0-5.858-5.857-5.858-15.354 0-21.213l29.743-29.744c5.856-5.858 15.361-5.854 21.213 0l19.42 19.418 23.787-23.787h-3.787c-8.284 0-15-6.716-15-15s6.716-15 15-15z" fill="#54efe8" data-original="#000000" style="" class=""/><path d="m508.263 246.093c-1.149-1.307-28.664-32.363-73.223-63.692-49.431-34.756-100.448-55.907-149.238-62.119 62.371 13.679 109.198 69.355 109.198 135.772 0 65.993-46.23 121.389-108.004 135.512 48.427-6.403 99.016-27.494 148.044-61.967 44.559-31.329 72.073-62.386 73.223-63.692 4.983-5.665 4.983-14.149 0-19.814z" fill="#54efe8" data-original="#000000" style="" class=""/><path d="m373.99 400.365c-4.143-7.175-13.316-9.634-20.49-5.49-7.175 4.142-9.633 13.315-5.49 20.49l15.5 26.847c4.155 7.197 13.337 9.621 20.49 5.49 7.175-4.142 9.633-13.315 5.49-20.49z" fill="#54efe8" data-original="#000000" style="" class=""/><path d="m256 90c8.284 0 15-6.716 15-15v-30c0-8.284-6.716-15-15-15s-15 6.716-15 15v30c0 8.284 6.716 15 15 15z" fill="#54efe8" data-original="#000000" style="" class=""/><path d="m354 116.259c7.143 4.125 16.33 1.717 20.49-5.49l15-25.98c4.143-7.174 1.685-16.349-5.49-20.49-7.174-4.144-16.349-1.686-20.49 5.49l-15 25.98c-4.143 7.174-1.685 16.348 5.49 20.49z" fill="#54efe8" data-original="#000000" style="" class=""/><path d="m256 421c-8.284 0-15 6.716-15 15v31c0 8.284 6.716 15 15 15s15-6.716 15-15v-31c0-8.284-6.716-15-15-15z" fill="#54efe8" data-original="#000000" style="" class=""/><path d="m137.51 110.769c4.155 7.197 13.337 9.621 20.49 5.49 7.175-4.142 9.633-13.316 5.49-20.49l-15-25.98c-4.143-7.176-13.316-9.633-20.49-5.49-7.175 4.142-9.633 13.316-5.49 20.49z" fill="#54efe8" data-original="#000000" style="" class=""/><path d="m158.5 394.875c-7.174-4.145-16.349-1.684-20.49 5.49l-15.5 26.847c-4.143 7.175-1.685 16.349 5.49 20.49 7.146 4.127 16.331 1.713 20.49-5.49l15.5-26.847c4.143-7.174 1.685-16.348-5.49-20.49z" fill="#54efe8" data-original="#000000" style="" class=""/></g></g></svg>
